<svg width="8" height="4" viewBox="0 0 8 4" fill="none" xmlns="http://www.w3.org/2000/svg">
<path d="M1.08286 3.65093C1.19215 3.75957 1.34 3.82056 1.49411 3.82056C1.64821 3.82056 1.79606 3.75957 1.90536 3.65093L3.99952 1.58593L6.06452 3.65093C6.17382 3.75957 6.32166 3.82056 6.47577 3.82056C6.62988 3.82056 6.77773 3.75957 6.88702 3.65093C6.9417 3.5967 6.98509 3.53218 7.01471 3.4611C7.04432 3.39001 7.05957 3.31377 7.05957 3.23676C7.05957 3.15975 7.04432 3.08351 7.01471 3.01242C6.98509 2.94134 6.9417 2.87682 6.88702 2.82259L4.41369 0.34926C4.35946 0.294585 4.29494 0.251189 4.22386 0.221574C4.15277 0.191959 4.07653 0.176711 3.99952 0.176711C3.92251 0.176711 3.84627 0.191959 3.77519 0.221574C3.7041 0.251189 3.63958 0.294586 3.58535 0.34926L1.08286 2.82259C1.02818 2.87682 0.984784 2.94134 0.955169 3.01242C0.925554 3.08351 0.910306 3.15975 0.910306 3.23676C0.910306 3.31377 0.925554 3.39001 0.955169 3.4611C0.984784 3.53218 1.02818 3.5967 1.08286 3.65093Z" fill="#191643"/>
</svg>
