<svg width="14" height="14" viewBox="0 0 14 14" fill="none" xmlns="http://www.w3.org/2000/svg">
<path d="M6.41732 5.24992H8.75065C8.90536 5.24992 9.05374 5.18846 9.16313 5.07906C9.27253 4.96967 9.33399 4.8213 9.33399 4.66659C9.33399 4.51188 9.27253 4.3635 9.16313 4.25411C9.05374 4.14471 8.90536 4.08325 8.75065 4.08325H7.58399V3.49992C7.58399 3.34521 7.52253 3.19684 7.41313 3.08744C7.30374 2.97804 7.15536 2.91659 7.00065 2.91659C6.84594 2.91659 6.69757 2.97804 6.58817 3.08744C6.47878 3.19684 6.41732 3.34521 6.41732 3.49992V4.08325C5.95319 4.08325 5.50807 4.26763 5.17988 4.59582C4.85169 4.924 4.66732 5.36912 4.66732 5.83325C4.66732 6.29738 4.85169 6.7425 5.17988 7.07069C5.50807 7.39888 5.95319 7.58325 6.41732 7.58325H7.58399C7.7387 7.58325 7.88707 7.64471 7.99647 7.75411C8.10586 7.8635 8.16732 8.01188 8.16732 8.16659C8.16732 8.3213 8.10586 8.46967 7.99647 8.57906C7.88707 8.68846 7.7387 8.74992 7.58399 8.74992H5.25065C5.09594 8.74992 4.94757 8.81138 4.83817 8.92077C4.72878 9.03017 4.66732 9.17854 4.66732 9.33325C4.66732 9.48796 4.72878 9.63634 4.83817 9.74573C4.94757 9.85513 5.09594 9.91659 5.25065 9.91659H6.41732V10.4999C6.41732 10.6546 6.47878 10.803 6.58817 10.9124C6.69757 11.0218 6.84594 11.0833 7.00065 11.0833C7.15536 11.0833 7.30374 11.0218 7.41313 10.9124C7.52253 10.803 7.58399 10.6546 7.58399 10.4999V9.91659C8.04812 9.91659 8.49324 9.73221 8.82142 9.40402C9.14961 9.07583 9.33399 8.63071 9.33399 8.16659C9.33399 7.70246 9.14961 7.25734 8.82142 6.92915C8.49324 6.60096 8.04812 6.41659 7.58399 6.41659H6.41732C6.26261 6.41659 6.11424 6.35513 6.00484 6.24573C5.89545 6.13633 5.83399 5.98796 5.83399 5.83325C5.83399 5.67854 5.89545 5.53017 6.00484 5.42077C6.11424 5.31138 6.26261 5.24992 6.41732 5.24992ZM7.00065 0.583252C5.73156 0.583252 4.49096 0.959583 3.43574 1.66466C2.38053 2.36973 1.55809 3.37187 1.07243 4.54437C0.586765 5.71686 0.459693 7.00704 0.707282 8.25175C0.95487 9.49646 1.566 10.6398 2.46339 11.5372C3.36077 12.4346 4.50411 13.0457 5.74882 13.2933C6.99354 13.5409 8.28371 13.4138 9.45621 12.9281C10.6287 12.4425 11.6308 11.62 12.3359 10.5648C13.041 9.50961 13.4173 8.26902 13.4173 6.99992C13.4173 5.29811 12.7413 3.66601 11.5379 2.46265C10.3346 1.25929 8.70246 0.583252 7.00065 0.583252ZM7.00065 12.2499C5.9623 12.2499 4.94727 11.942 4.08391 11.3651C3.22055 10.7883 2.54765 9.96832 2.15029 9.00901C1.75293 8.0497 1.64896 6.9941 1.85153 5.9757C2.0541 4.95729 2.55412 4.02183 3.28834 3.28761C4.02257 2.55338 4.95803 2.05337 5.97643 1.8508C6.99483 1.64822 8.05043 1.75219 9.00974 2.14955C9.96905 2.54691 10.789 3.21982 11.3659 4.08318C11.9427 4.94653 12.2507 5.96157 12.2507 6.99992C12.2507 8.39231 11.6975 9.72766 10.713 10.7122C9.7284 11.6968 8.39304 12.2499 7.00065 12.2499Z" fill="#191643"/>
</svg>
