<svg width="12" height="12" viewBox="0 0 12 12" fill="none" xmlns="http://www.w3.org/2000/svg">
<path d="M4.83268 6.58342H0.749349C0.594639 6.58342 0.446266 6.64487 0.33687 6.75427C0.227474 6.86367 0.166016 7.01204 0.166016 7.16675V11.2501C0.166016 11.4048 0.227474 11.5532 0.33687 11.6626C0.446266 11.772 0.594639 11.8334 0.749349 11.8334H4.83268C4.98739 11.8334 5.13577 11.772 5.24516 11.6626C5.35456 11.5532 5.41602 11.4048 5.41602 11.2501V7.16675C5.41602 7.01204 5.35456 6.86367 5.24516 6.75427C5.13577 6.64487 4.98739 6.58342 4.83268 6.58342ZM4.24935 10.6667H1.33268V7.75008H4.24935V10.6667ZM11.2493 0.166748H7.16602C7.01131 0.166748 6.86293 0.228206 6.75354 0.337602C6.64414 0.446999 6.58268 0.595372 6.58268 0.750081V4.83342C6.58268 4.98812 6.64414 5.1365 6.75354 5.24589C6.86293 5.35529 7.01131 5.41675 7.16602 5.41675H11.2493C11.4041 5.41675 11.5524 5.35529 11.6618 5.24589C11.7712 5.1365 11.8327 4.98812 11.8327 4.83342V0.750081C11.8327 0.595372 11.7712 0.446999 11.6618 0.337602C11.5524 0.228206 11.4041 0.166748 11.2493 0.166748ZM10.666 4.25008H7.74935V1.33341H10.666V4.25008ZM11.2493 6.58342H7.16602C7.01131 6.58342 6.86293 6.64487 6.75354 6.75427C6.64414 6.86367 6.58268 7.01204 6.58268 7.16675V11.2501C6.58268 11.4048 6.64414 11.5532 6.75354 11.6626C6.86293 11.772 7.01131 11.8334 7.16602 11.8334H11.2493C11.4041 11.8334 11.5524 11.772 11.6618 11.6626C11.7712 11.5532 11.8327 11.4048 11.8327 11.2501V7.16675C11.8327 7.01204 11.7712 6.86367 11.6618 6.75427C11.5524 6.64487 11.4041 6.58342 11.2493 6.58342ZM10.666 10.6667H7.74935V7.75008H10.666V10.6667ZM4.83268 0.166748H0.749349C0.594639 0.166748 0.446266 0.228206 0.33687 0.337602C0.227474 0.446999 0.166016 0.595372 0.166016 0.750081V4.83342C0.166016 4.98812 0.227474 5.1365 0.33687 5.24589C0.446266 5.35529 0.594639 5.41675 0.749349 5.41675H4.83268C4.98739 5.41675 5.13577 5.35529 5.24516 5.24589C5.35456 5.1365 5.41602 4.98812 5.41602 4.83342V0.750081C5.41602 0.595372 5.35456 0.446999 5.24516 0.337602C5.13577 0.228206 4.98739 0.166748 4.83268 0.166748ZM4.24935 4.25008H1.33268V1.33341H4.24935V4.25008Z" fill="#3A339A"/>
</svg>
