<svg width="12" height="12" viewBox="0 0 12 12" fill="none" xmlns="http://www.w3.org/2000/svg">
<path d="M11.436 4.57092L10.3335 4.20342L10.8527 3.16508C10.9053 3.0564 10.9229 2.93406 10.9031 2.81495C10.8832 2.69584 10.8269 2.58582 10.7419 2.50008L9.49935 1.25758C9.41316 1.1713 9.30208 1.1142 9.18175 1.09432C9.06142 1.07444 8.93789 1.09278 8.82852 1.14675L7.79018 1.66592L7.42268 0.563417C7.38387 0.448496 7.3102 0.348532 7.21192 0.277436C7.11364 0.206341 6.99565 0.167651 6.87435 0.16675H5.12435C5.00206 0.166434 4.88276 0.204561 4.78332 0.275741C4.68387 0.346921 4.60932 0.447554 4.57018 0.563417L4.20268 1.66592L3.16435 1.14675C3.05567 1.09412 2.93333 1.07652 2.81422 1.09637C2.69511 1.11622 2.58509 1.17255 2.49935 1.25758L1.25685 2.50008C1.17057 2.58628 1.11347 2.69735 1.09359 2.81768C1.07371 2.93801 1.09205 3.06155 1.14602 3.17092L1.66518 4.20925L0.562684 4.57675C0.447763 4.61556 0.347799 4.68923 0.276704 4.78751C0.205609 4.88579 0.166918 5.00379 0.166018 5.12508V6.87508C0.165702 6.99738 0.203829 7.11667 0.275009 7.21612C0.346189 7.31556 0.446822 7.39012 0.562684 7.42925L1.66518 7.79675L1.14602 8.83508C1.09339 8.94377 1.07579 9.0661 1.09564 9.18522C1.11549 9.30433 1.17182 9.41434 1.25685 9.50008L2.49935 10.7426C2.58555 10.8289 2.69662 10.886 2.81695 10.9058C2.93728 10.9257 3.06082 10.9074 3.17018 10.8534L4.20852 10.3343L4.57602 11.4368C4.61515 11.5526 4.68971 11.6532 4.78915 11.7244C4.88859 11.7956 5.00789 11.8337 5.13018 11.8334H6.88018C7.00248 11.8337 7.12178 11.7956 7.22122 11.7244C7.32066 11.6532 7.39522 11.5526 7.43435 11.4368L7.80185 10.3343L8.84019 10.8534C8.94817 10.9047 9.06932 10.9216 9.18722 10.9018C9.30512 10.882 9.41408 10.8264 9.49935 10.7426L10.7419 9.50008C10.8281 9.41389 10.8852 9.30282 10.9051 9.18249C10.925 9.06215 10.9067 8.93862 10.8527 8.82925L10.3335 7.79092L11.436 7.42342C11.5509 7.3846 11.6509 7.31093 11.722 7.21265C11.7931 7.11438 11.8318 6.99638 11.8327 6.87508V5.12508C11.833 5.00279 11.7949 4.88349 11.7237 4.78405C11.6525 4.68461 11.5519 4.61005 11.436 4.57092ZM10.666 6.45508L9.96602 6.68842C9.80505 6.74063 9.65737 6.82724 9.53322 6.94223C9.40907 7.05722 9.31141 7.19784 9.24704 7.35434C9.18266 7.51084 9.1531 7.67947 9.16041 7.84854C9.16772 8.0176 9.21171 8.18305 9.28935 8.33342L9.62185 8.99842L8.98018 9.64008L8.33268 9.29008C8.18309 9.21556 8.01923 9.17404 7.8522 9.16834C7.68517 9.16264 7.51886 9.1929 7.36454 9.25706C7.21021 9.32123 7.07148 9.4178 6.95772 9.54024C6.84396 9.66268 6.75784 9.80813 6.70518 9.96675L6.47185 10.6668H5.54435L5.31102 9.96675C5.2588 9.80578 5.1722 9.6581 5.05721 9.53395C4.94222 9.4098 4.8016 9.31215 4.6451 9.24777C4.4886 9.18339 4.31996 9.15383 4.1509 9.16114C3.98183 9.16845 3.81638 9.21245 3.66602 9.29008L3.00102 9.62258L2.35935 8.98092L2.70935 8.33342C2.78699 8.18305 2.83099 8.0176 2.83829 7.84854C2.8456 7.67947 2.81604 7.51084 2.75167 7.35434C2.68729 7.19784 2.58964 7.05722 2.46549 6.94223C2.34133 6.82724 2.19365 6.74063 2.03268 6.68842L1.33268 6.45508V5.54508L2.03268 5.31175C2.19365 5.25954 2.34133 5.17293 2.46549 5.05794C2.58964 4.94295 2.68729 4.80233 2.75167 4.64583C2.81604 4.48933 2.8456 4.3207 2.83829 4.15163C2.83099 3.98257 2.78699 3.81711 2.70935 3.66675L2.37685 3.01925L3.01852 2.37758L3.66602 2.71008C3.81638 2.78772 3.98183 2.83172 4.1509 2.83903C4.31996 2.84633 4.4886 2.81677 4.6451 2.7524C4.8016 2.68802 4.94222 2.59037 5.05721 2.46622C5.1722 2.34207 5.2588 2.19438 5.31102 2.03342L5.54435 1.33342H6.45435L6.68768 2.03342C6.7399 2.19438 6.8265 2.34207 6.94149 2.46622C7.05648 2.59037 7.19711 2.68802 7.35361 2.7524C7.51011 2.81677 7.67874 2.84633 7.8478 2.83903C8.01687 2.83172 8.18232 2.78772 8.33268 2.71008L8.99768 2.37758L9.63935 3.01925L9.28935 3.66675C9.21482 3.81634 9.1733 3.9802 9.16761 4.14724C9.16191 4.31427 9.19217 4.48058 9.25633 4.6349C9.32049 4.78922 9.41707 4.92796 9.53951 5.04171C9.66195 5.15547 9.8074 5.24159 9.96602 5.29425L10.666 5.52758V6.45508ZM5.99935 3.66675C5.53786 3.66675 5.08674 3.8036 4.70302 4.05999C4.31931 4.31638 4.02024 4.68079 3.84363 5.10716C3.66703 5.53352 3.62082 6.00267 3.71085 6.45529C3.80088 6.90792 4.02311 7.32368 4.34944 7.65C4.67576 7.97632 5.09152 8.19855 5.54414 8.28858C5.99676 8.37862 6.46592 8.33241 6.89228 8.1558C7.31864 7.9792 7.68306 7.68013 7.93945 7.29641C8.19584 6.9127 8.33268 6.46157 8.33268 6.00008C8.33268 5.38125 8.08685 4.78775 7.64927 4.35017C7.21168 3.91258 6.61819 3.66675 5.99935 3.66675ZM5.99935 7.16675C5.76861 7.16675 5.54304 7.09833 5.35119 6.97013C5.15933 6.84194 5.00979 6.65973 4.92149 6.44655C4.83319 6.23337 4.81009 5.99879 4.8551 5.77248C4.90012 5.54617 5.01123 5.33829 5.17439 5.17513C5.33755 5.01196 5.54543 4.90085 5.77175 4.85583C5.99806 4.81082 6.23263 4.83392 6.44582 4.92222C6.659 5.01053 6.8412 5.16006 6.9694 5.35192C7.09759 5.54378 7.16602 5.76934 7.16602 6.00008C7.16602 6.3095 7.0431 6.60625 6.82431 6.82504C6.60552 7.04383 6.30877 7.16675 5.99935 7.16675Z" fill="#191643"/>
</svg>
