<svg width="16" height="16" viewBox="0 0 16 16" fill="none" xmlns="http://www.w3.org/2000/svg">
<path d="M7.09988 8.20348L7.167 8.08737V7.95325V4.66659C7.167 4.62238 7.18456 4.57999 7.21581 4.54873C7.24707 4.51748 7.28946 4.49992 7.33366 4.49992C7.37786 4.49992 7.42026 4.51748 7.45151 4.54873C7.48277 4.57999 7.50033 4.62238 7.50033 4.66659V7.95483L7.49506 7.98381L7.48153 8.05823L7.49062 8.13333C7.49449 8.16533 7.489 8.19772 7.47487 8.2266L6.48057 9.95006L6.48015 9.95078C6.45783 9.98963 6.42098 10.018 6.37772 10.0297C6.33445 10.0414 6.28832 10.0354 6.24947 10.0131C6.21062 9.99075 6.18223 9.9539 6.17054 9.91064C6.1589 9.86752 6.1648 9.82154 6.18695 9.78277C6.18703 9.78265 6.1871 9.78252 6.18717 9.7824L7.09988 8.20348ZM3.90765 2.87252C4.92175 2.19492 6.11401 1.83325 7.33366 1.83325C8.14348 1.83325 8.94537 1.99276 9.69354 2.30266C10.4417 2.61257 11.1215 3.0668 11.6942 3.63943C12.2668 4.21205 12.721 4.89186 13.0309 5.64004C13.3408 6.38821 13.5003 7.1901 13.5003 7.99992C13.5003 9.21957 13.1387 10.4118 12.4611 11.4259C11.7835 12.44 10.8204 13.2304 9.69354 13.6972C8.56673 14.1639 7.32682 14.286 6.13061 14.0481C4.93439 13.8102 3.83559 13.2228 2.97317 12.3604C2.11075 11.498 1.52343 10.3992 1.28549 9.20298C1.04754 8.00676 1.16966 6.76685 1.6364 5.64004C2.10315 4.51323 2.89354 3.55012 3.90765 2.87252ZM4.09284 12.8502C5.05212 13.4911 6.17994 13.8333 7.33366 13.8333C8.88076 13.8333 10.3645 13.2187 11.4585 12.1247C12.5524 11.0307 13.167 9.54701 13.167 7.99992C13.167 6.84619 12.8249 5.71838 12.1839 4.75909C11.5429 3.79981 10.6319 3.05213 9.56598 2.61062C8.50008 2.16911 7.32719 2.05359 6.19564 2.27867C5.06408 2.50375 4.02468 3.05932 3.20887 3.87513C2.39307 4.69094 1.83749 5.73034 1.61241 6.86189C1.38733 7.99345 1.50285 9.16634 1.94436 10.2322C2.38588 11.2981 3.13355 12.2092 4.09284 12.8502Z" stroke="#BDBDBD"/>
</svg>
