<svg width="16" height="16" viewBox="0 0 16 16" fill="none" xmlns="http://www.w3.org/2000/svg">
<path d="M6.58708 10.3126L5.73039 11.1667H6.94009H10.6668C10.711 11.1667 10.7534 11.1842 10.7846 11.2155C10.8159 11.2467 10.8334 11.2891 10.8334 11.3333C10.8334 11.3775 10.8159 11.4199 10.7846 11.4512C10.7534 11.4824 10.711 11.5 10.6668 11.5H5.33505C5.30245 11.4997 5.27066 11.4898 5.24361 11.4716C5.21633 11.4532 5.19509 11.4271 5.18259 11.3967L5.1826 11.3967L5.181 11.3929C5.16824 11.3625 5.16475 11.329 5.17098 11.2967C5.17712 11.2648 5.19246 11.2354 5.21508 11.2121L8.0799 8.35396L8.43469 8L8.0799 7.64604L5.21509 4.78788C5.19246 4.76459 5.17713 4.73519 5.17098 4.70328C5.16475 4.67095 5.16824 4.6375 5.181 4.60715L5.18102 4.60716L5.18259 4.60333C5.19509 4.57289 5.21632 4.54684 5.24361 4.52845C5.27067 4.51021 5.30248 4.50033 5.33509 4.5H10.6668C10.711 4.5 10.7534 4.51756 10.7846 4.54882C10.8159 4.58007 10.8334 4.62246 10.8334 4.66667C10.8334 4.71087 10.8159 4.75326 10.7846 4.78452C10.7534 4.81577 10.711 4.83333 10.6668 4.83333H6.94009H5.73039L6.58708 5.68742L8.78708 7.88076L8.78799 7.88167C8.80361 7.89716 8.81601 7.91559 8.82447 7.9359C8.83294 7.95621 8.83729 7.978 8.83729 8C8.83729 8.022 8.83294 8.04379 8.82447 8.0641C8.81601 8.08441 8.80361 8.10284 8.78799 8.11833L8.78708 8.11924L6.58708 10.3126Z" stroke="#3A339A"/>
</svg>
